# xmcd
#
# Track frame offsets:
#	150
#	20870
#	39423
#	57984
#	70913
#	89828
#	106491
#	123849
#	144177
#	159638
#	179283
#	202233
#	218424
#	242663
#	260048
#	279311
#	304224
#	324396
#	339580
#
# Disc length: 4760 seconds
#
# Revision: 0
# Processed by: cddbd v1.5.2PL0 Copyright (c) Steve Scherf et al.
# Submitted via: EasyCDDAExtractor 12.1.0.1
#
DISCID=1f129613
DTITLE=Kosmikud - Puhas muld, Valitud teosed 1999-2009
DYEAR=2009
DGENRE=Blues
TTITLE0=Ei Roosid
TTITLE1=Haiged
TTITLE2=Minni-Hiir
TTITLE3=Tallinna Matusebüroo
TTITLE4=Vihma Käes
TTITLE5=Sõidame kuule
TTITLE6=Üliintelligentne
TTITLE7=Viimane etap
TTITLE8=Öine kriisi- ja nõustamistelefon
TTITLE9=Iga reklamaatahvli taga
TTITLE10=Oksad alla
TTITLE11=Lydia koidula haud
TTITLE12=Õieaeg
TTITLE13=Mälestus
TTITLE14=Kuidas tuli pimedus mu tuppa
TTITLE15=Viska mulda
TTITLE16=Jeerum
TTITLE17=Pulmad ja matused
TTITLE18=Surmasõit 2009
EXTD=
EXTT0=
EXTT1=
EXTT2=
EXTT3=
EXTT4=
EXTT5=
EXTT6=
EXTT7=
EXTT8=
EXTT9=
EXTT10=
EXTT11=
EXTT12=
EXTT13=
EXTT14=
EXTT15=
EXTT16=
EXTT17=
EXTT18=
PLAYORDER=
